HIERARCHY
ROOT Hips
{
	OFFSET -3.958830 18.904000 13.208200
	CHANNELS 6 Xposition Yposition Zposition Zrotation Yrotation Xrotation 
	JOINT LHipJoint
	{
		OFFSET 0.000000 0.000000 0.000000
		CHANNELS 3 Zrotation Yrotation Xrotation
		JOINT LeftUpLeg
		{
			OFFSET 1.800000 -1.400000 0.085000
			CHANNELS 3 Zrotation Yrotation Xrotation
			JOINT LeftLeg
			{
				OFFSET 2.215000 -6.000000 0.000000
				CHANNELS 3 Zrotation Yrotation Xrotation
				JOINT LeftFoot
				{
					OFFSET 2.500000 -6.900000 0.000000
					CHANNELS 3 Zrotation Yrotation Xrotation
					JOINT LeftToeBase
					{
						OFFSET 0.200000 -0.500000 1.950000
						CHANNELS 3 Zrotation Yrotation Xrotation
						End Site
						{
							OFFSET 0.000000 0.000000 0.000000
						}
					}
				}
			}
		}
	}
	JOINT RHipJoint
	{
		OFFSET 0.000000 0.000000 0.000000
		CHANNELS 3 Zrotation Yrotation Xrotation
		JOINT RightUpLeg
		{
			OFFSET -1.800000 -1.400000 0.085000
			CHANNELS 3 Zrotation Yrotation Xrotation
			JOINT RightLeg
			{
				OFFSET -2.215000 -6.000000 0.000000
				CHANNELS 3 Zrotation Yrotation Xrotation
				JOINT RightFoot
				{
					OFFSET -2.500000 -6.900000 0.000000
					CHANNELS 3 Zrotation Yrotation Xrotation
					JOINT RightToeBase
					{
						OFFSET -0.200000 -0.500000 1.950000
						CHANNELS 3 Zrotation Yrotation Xrotation
						End Site
						{
							OFFSET 0.000000 0.000000 0.000000
						}
					}
				}
			}
		}
	}
	JOINT LowerBack
	{
		OFFSET 0.000000 0.000000 0.000000
		CHANNELS 3 Zrotation Yrotation Xrotation
		JOINT Spine
		{
			OFFSET -0.087000 1.940000 -0.288900
			CHANNELS 3 Zrotation Yrotation Xrotation
			JOINT Spine1
			{
				OFFSET 0.000000 1.950000 0.060000
				CHANNELS 3 Zrotation Yrotation Xrotation
				JOINT Neck
				{
					OFFSET 0.000000 0.000000 0.000000
					CHANNELS 3 Zrotation Yrotation Xrotation
					JOINT Neck1
					{
						OFFSET 0.000000 1.600000 0.340000
						CHANNELS 3 Zrotation Yrotation Xrotation
						JOINT Head
						{
							OFFSET 0.000000 1.667000 -0.240000
							CHANNELS 3 Zrotation Yrotation Xrotation
							End Site
							{
								OFFSET 0.000000 0.000000 0.000000
							}
						}
					}
				}
				JOINT LeftShoulder
				{
					OFFSET 0.000000 0.000000 0.000000
					CHANNELS 3 Zrotation Yrotation Xrotation
					JOINT LeftArm
					{
						OFFSET 2.700000 1.550000 -0.730000
						CHANNELS 3 Zrotation Yrotation Xrotation
						JOINT LeftForeArm
						{
							OFFSET 5.450000 0.000000 0.000000
							CHANNELS 3 Zrotation Yrotation Xrotation
							JOINT LeftHand
							{
								OFFSET 3.450000 0.000000 0.000000
								CHANNELS 3 Zrotation Yrotation Xrotation
								JOINT LeftHandIndex1
								{
									OFFSET 0.750000 0.000000 0.000000
									CHANNELS 3 Zrotation Yrotation Xrotation
									End Site
									{
										OFFSET 0.000000 0.000000 0.000000
									}
								}
							}
						}
					}
				}
				JOINT RightShoulder
				{
					OFFSET 0.000000 0.000000 0.000000
					CHANNELS 3 Zrotation Yrotation Xrotation
					JOINT RightArm
					{
						OFFSET -2.700000 1.550000 -0.730000
						CHANNELS 3 Zrotation Yrotation Xrotation
						JOINT RightForeArm
						{
							OFFSET -5.450000 0.000000 0.000000
							CHANNELS 3 Zrotation Yrotation Xrotation
							JOINT RightHand
							{
								OFFSET -3.450000 0.000000 0.000000
								CHANNELS 3 Zrotation Yrotation Xrotation
								JOINT RightHandIndex1
								{
									OFFSET -0.750000 0.000000 0.000000
									CHANNELS 3 Zrotation Yrotation Xrotation
									End Site
									{
										OFFSET 0.000000 0.000000 0.000000
									}
								}
							}
						}
					}
				}
			}
		}
	}
}
MOTION
Frames: 9
Frame Time: 0.016667
2.344200 17.227420 -5.685720 -170.278052 -51.290837 161.244201 -15.592488 14.007762 2.086503 -16.824970 5.437930 -39.629006 32.735112 1.545483 17.519662 0.494704 4.008616 2.979711 -0.232820 -0.369230 -0.080380 18.077978 -9.523471 3.931801 0.169963 0.713906 15.207978 13.856998 -4.965934 -4.927428 -0.887263 -5.248919 2.633645 -0.422050 -0.154050 -0.007020 -4.281682 -3.938855 -7.757972 13.533245 -15.515275 8.214321 -13.921268 -15.603399 5.183955 2.809085 -0.952557 -10.788898 -6.134767 -3.779670 41.389191 3.966630 -8.147650 1.169790 -9.383313 0.214893 7.744856 -71.307131 5.140349 -3.642769 -70.371902 -5.227398 -0.513405 -3.222075 3.263859 0.225360 -0.230610 0.125180 -0.093810 2.346359 -3.312407 4.644076 84.917666 -8.936551 -15.411015 62.466098 -6.654135 -5.909966 2.786041 -1.439815 0.070190 -0.139910 0.052980 0.005110 
2.283000 17.293180 -5.693660 -170.951954 -51.673557 162.049683 -15.604043 13.983560 2.013765 -15.859208 5.551942 -36.194940 31.845802 1.666256 16.565393 0.464348 3.822100 3.053855 -0.223650 -0.361060 -0.068570 18.093628 -9.409177 4.021588 0.503188 0.738324 15.128300 13.255296 -4.293690 -7.670259 -0.911376 -5.200603 2.647816 -0.420720 -0.164400 -0.007860 -4.270977 -4.076162 -7.749720 13.226806 -16.021123 7.737452 -15.374385 -15.973707 5.608422 3.055148 -0.936705 -10.866180 -6.245451 -3.302695 42.103557 4.304220 -7.890930 0.980210 -9.732000 -0.150899 7.842105 -69.973363 5.343814 -3.818180 -71.990363 -5.324634 -0.614623 -3.200840 3.273170 0.240890 -0.241400 0.138580 -0.094020 2.049062 -3.121006 4.902472 85.370996 -9.388230 -16.108234 63.922643 -6.129134 -5.939725 2.776382 -1.442279 0.070760 -0.138130 0.047450 0.000240 
2.220370 17.343100 -5.705470 -172.810174 -50.621616 163.804677 -15.605208 14.019221 1.860926 -15.366280 6.167717 -34.721393 31.709904 1.884717 16.914671 0.454507 3.878939 3.035771 -0.215880 -0.352770 -0.055720 18.101853 -9.380495 4.105276 -0.089360 1.235642 15.360995 12.063236 -3.819087 -9.767538 -0.933702 -5.230999 2.641410 -0.409900 -0.163020 -0.004770 -4.221186 -4.122565 -7.707237 12.485567 -15.914909 7.208757 -16.808148 -15.673663 6.279793 3.421777 -0.530261 -10.908970 -5.425314 -2.939017 42.265390 4.122470 -7.011110 0.755860 -10.885956 -1.188922 8.069685 -67.745857 5.691886 -4.078277 -74.199841 -5.625988 -0.713915 -3.204141 3.287772 0.249290 -0.232960 0.140730 -0.096680 2.364632 -2.374189 5.091939 84.932814 -9.615377 -16.598903 65.734663 -6.522477 -6.625126 2.749022 -1.461244 0.062560 -0.132460 0.048420 -0.011290 
2.158980 17.359570 -5.730410 -175.264963 -49.588789 166.586573 -15.634552 14.015811 1.625063 -15.999383 6.911410 -35.668185 31.822537 2.076246 19.339611 0.481674 4.153432 2.940792 -0.222600 -0.355180 -0.062490 18.097503 -9.218781 4.333296 -1.550891 3.115237 16.638531 11.394963 -2.926236 -13.547955 -0.990166 -5.471806 2.570082 -0.397610 -0.135020 0.004640 -4.015729 -4.212810 -7.656788 10.785012 -15.287319 5.917654 -17.419964 -14.970548 7.301499 3.636704 0.167474 -10.842687 -3.864970 -3.091626 41.018752 3.769100 -6.272630 0.825200 -11.501175 -1.892434 8.234755 -65.560168 5.634511 -3.401529 -77.004376 -5.959426 -0.400748 -3.235881 3.325783 0.227170 -0.198970 0.119450 -0.095760 2.584489 -2.033882 5.220862 84.459724 -9.827699 -16.222576 67.287040 -7.202115 -7.241321 2.715087 -1.493786 0.052350 -0.128860 0.057350 -0.012560 
2.079800 17.374590 -5.731860 -174.583549 -51.754867 166.425097 -15.705334 14.152766 1.593179 -17.463498 7.406604 -36.084292 33.412132 2.352703 18.013340 0.503956 4.275671 2.904956 -0.218280 -0.339170 -0.065050 18.055394 -8.999914 4.382973 -0.164747 3.280288 17.784939 8.925913 -2.761566 -15.145354 -1.013354 -5.486237 2.559969 -0.376920 -0.117780 0.009630 -3.713853 -4.749991 -7.574381 10.100771 -16.497668 4.906654 -17.440688 -16.431175 9.267957 3.720445 0.547132 -11.110412 -3.194451 -3.010063 39.982684 3.408940 -5.710870 0.397660 -11.999036 -3.438055 8.753914 -65.513412 4.624735 -2.279473 -77.772299 -8.670958 1.697150 -3.256590 3.346007 0.209930 -0.178170 0.108940 -0.092770 2.802871 -1.157328 5.617263 83.863990 -8.658903 -13.611238 68.356564 -5.099678 -5.421269 2.675411 -1.527646 0.047150 -0.119830 0.060840 -0.010370 
1.995360 17.377510 -5.705460 -170.053352 -57.687771 163.056060 -15.784147 14.301608 1.765216 -20.134684 7.493878 -36.349708 37.099068 2.997591 13.305867 0.567291 4.463981 2.856084 -0.194470 -0.295090 -0.060660 18.040532 -8.527237 4.391165 3.890711 2.670310 18.846184 5.391132 -2.616027 -16.988549 -1.029523 -5.375453 2.572241 -0.336640 -0.102600 0.018840 -3.187990 -5.847520 -7.534043 9.992625 -19.613448 3.900565 -16.689488 -20.351989 12.548800 3.489086 0.640810 -11.788812 -3.293018 -2.861580 38.354906 2.792580 -5.276110 -0.610810 -11.734527 -5.986224 9.499261 -67.676314 2.402698 -0.751431 -76.546836 -13.917519 5.387726 -3.274327 3.369867 0.182950 -0.158840 0.101500 -0.083780 2.569887 0.285413 6.525018 83.330697 -5.958176 -8.161131 68.345179 0.918528 -0.295544 2.614449 -1.574393 0.050220 -0.108160 0.056720 -0.001180 
1.917910 17.371680 -5.646930 -155.747860 -68.040569 150.711235 -15.638099 14.140246 2.268173 -23.758528 6.373351 -35.692303 40.123155 4.702386 4.165414 0.611821 4.550558 2.848440 -0.144500 -0.198390 -0.052890 18.293814 -7.884369 4.354589 10.364350 1.583896 19.232912 1.246215 -2.592788 -18.443874 -1.024514 -5.190905 2.579906 -0.248190 -0.071470 0.033170 -2.223304 -7.522264 -7.565663 9.097347 -24.731559 3.049777 -14.164271 -27.192144 16.851907 2.195981 1.649319 -13.296431 -2.120656 -2.984470 37.367245 2.098440 -5.035340 -1.636740 -10.514501 -11.800064 10.484484 -71.469026 -1.111073 0.022640 -73.531590 -18.833315 7.291932 -3.326151 3.403076 0.129290 -0.121160 0.091380 -0.067400 2.780491 3.393318 8.256525 82.730820 -1.620211 0.853696 66.661882 12.206672 8.452514 2.514473 -1.654273 0.056180 -0.078010 0.050810 0.021810 
2.189680 17.381540 -5.641970 151.923180 63.308343 157.855693 -15.670034 10.100960 5.543155 -1.690700 -10.438470 16.071781 -22.726817 -0.459528 -17.543712 1.261788 6.009923 2.582242 -0.125430 -0.124740 -0.033370 17.869477 -12.719391 2.025562 9.268989 -7.106946 -35.398568 -19.946942 -2.273483 12.347347 -0.010859 -2.357438 3.389820 -0.207920 -0.061860 0.029360 -6.731658 7.264532 -7.396129 7.131407 28.830656 3.636884 -6.317675 34.750724 10.388914 4.329162 -4.054724 -16.292167 -6.142466 3.310874 41.529425 1.713300 3.336130 -1.095750 -11.681845 -3.002282 6.707767 -70.570873 -0.380136 6.623522 -70.727767 -20.573834 15.724760 -3.422141 3.279091 0.146570 -0.106130 0.130710 -0.066930 5.002625 17.898171 12.623770 80.954656 2.993669 1.038453 65.968795 18.302680 5.730882 2.626238 -1.748690 0.043350 -0.057650 0.045820 0.007720 
2.113900 17.380370 -5.684640 161.572568 56.973412 165.797128 -15.227950 10.251796 5.340656 3.337986 -10.451151 13.900256 -26.041383 0.935450 -13.171175 1.300714 6.247760 2.529894 -0.172570 -0.213760 -0.052010 18.241965 -12.822119 1.969636 6.523695 -6.873077 -33.633413 -16.324341 -2.584218 15.415132 0.037164 -2.320835 3.446678 -0.280010 -0.054010 0.025050 -6.082396 6.063987 -7.400480 7.832488 25.048136 3.889370 -4.170592 29.195135 8.015786 3.341797 -3.750406 -14.981927 -5.810470 3.965751 41.418605 1.735200 4.241110 1.018580 -11.226257 -1.566229 5.021438 -71.671880 2.539847 0.474022 -71.296153 -11.414775 7.717922 -3.454450 3.296383 0.155430 -0.100480 0.108410 -0.066510 6.098974 14.434506 12.846178 78.997626 1.425297 1.685041 66.776504 14.158471 4.626448 2.641451 -1.693649 0.036480 -0.088080 0.049200 -0.005750 
